<?xml version="1.0" standalone="no"?>
<!DOCTYPE svg PUBLIC "-//W3C//DTD SVG 20010904//EN"
 "http://www.w3.org/TR/2001/REC-SVG-20010904/DTD/svg10.dtd">
<svg version="1.0" xmlns="http://www.w3.org/2000/svg"
 width="16.000000pt" height="16.000000pt" viewBox="0 0 16.000000 16.000000"
 preserveAspectRatio="xMidYMid meet">

<g transform="translate(0.000000,16.000000) scale(0.100000,-0.100000)"
fill="#2370F5" stroke="none">
<path d="M82 148 c3 -7 14 -14 26 -16 14 -2 22 -11 22 -23 0 -10 5 -19 10 -19
6 0 10 16 10 35 0 33 -2 35 -36 35 -24 0 -34 -4 -32 -12z"/>
<path d="M50 105 c7 -8 19 -15 26 -15 8 0 14 -6 14 -14 0 -7 7 -19 15 -26 13
-11 15 -7 15 29 l0 41 -41 0 c-36 0 -40 -2 -29 -15z"/>
<path d="M10 71 c0 -5 9 -12 19 -16 11 -3 23 -15 26 -26 10 -31 25 -22 25 16
0 33 -2 35 -35 35 -19 0 -35 -4 -35 -9z"/>
</g>
</svg>
